<svg xmlns="http://www.w3.org/2000/svg" width="23" height="24" viewBox="0 0 23 24" fill="none">
<path d="M9.1255 9.10793C9.1255 7.76804 10.2042 6.68557 11.5249 6.68557H12.2309L14.1465 4.71863H11.5249C9.1255 4.71863 7.17725 6.68557 7.17725 9.10793V11.8669L9.1255 9.86699V9.10793Z" fill="black"/>
<path d="M17.2455 4.349L16.8793 4.71862H16.8728L17.2455 4.349Z" fill="black"/>
<path d="M16.8794 4.71863L14.9638 6.68557H14.9246L16.8728 4.71863H16.8794Z" fill="black"/>
<path d="M22.3319 0.599976V1.64945C22.3319 1.90027 22.2207 2.12468 22.0377 2.27649V2.28309L19.7887 4.55365V4.56685L14.9311 9.57L13.2313 11.3191L7.39306 17.3387L5.48404 19.3057L3.7646 21.0416H11.793C15.1272 21.0416 17.847 18.3024 17.847 14.9296V9.37859L19.7952 7.37205V14.9296C19.7952 19.3849 16.206 23.0085 11.793 23.0085H1.42408H0.449951V21.9657C0.449951 21.7148 0.561093 21.4904 0.737613 21.3452V21.3386L2.98661 19.0681L7.3996 14.4609L9.13211 12.6854L14.9638 6.6856L16.8794 4.71866L17.2455 4.34244L19.0107 2.56031H10.9823C7.64804 2.56031 4.92833 5.2995 4.92833 8.67234V14.1705L2.98007 16.1705V8.67894C2.98007 4.22363 6.56931 0.599976 10.9823 0.599976H19.841H22.3319Z" fill="black"/>
<path d="M10.8387 17.3322H10.1261L8.21704 19.2991H10.8387C13.238 19.2991 15.1863 17.3322 15.1863 14.9098V12.1178L13.238 14.1243V14.9098C13.2446 16.2431 12.1659 17.3322 10.8387 17.3322Z" fill="black"/>
<path d="M7.43879 17.3322L5.49707 19.2991L7.39956 17.3322H7.43879Z" fill="black"/>
</svg>